# xmcd CD database file
#
# Track frame offsets:
#	150
#	14410
#	27358
#	41688
#	60929
#	74623
#	85722
#	96551
#	110405
#	124820
#	141448
#	157957
#	173686
#	189498
#	208035
#	221993
#	241076
#	255721
#
# Disc length: 3627 seconds
#
# Revision: 0
# Processed by: cddbd v1.5.2PL0 Copyright (c) Steve Scherf et al.
# Submitted via: CDex 1.51
#
DISCID=040e2912
DTITLE=get up and dance special 59 - get up and dance special 59
DYEAR=2008
DGENRE=Country
TTITLE0=That's The Truth
TTITLE1=Travelin'Music
TTITLE2=I Believe
TTITLE3=Clocks
TTITLE4=A Little Southern Comfort
TTITLE5=Billy's Twist
TTITLE6=Moving On
TTITLE7=On A Good Night
TTITLE8=Work It
TTITLE9=El Bodequero
TTITLE10=Good Question
TTITLE11=Charleston Step
TTITLE12=You'll Never Know
TTITLE13=Contigo
TTITLE14=Until
TTITLE15=Pienso en Ti
TTITLE16=Another One Bites The Dust
TTITLE17=Hel's Lindy
EXTD=YEAR: 2008
EXTT0=
EXTT1=
EXTT2=
EXTT3=
EXTT4=
EXTT5=
EXTT6=
EXTT7=
EXTT8=
EXTT9=
EXTT10=
EXTT11=
EXTT12=
EXTT13=
EXTT14=
EXTT15=
EXTT16=
EXTT17=
PLAYORDER=
